<svg xmlns="http://www.w3.org/2000/svg" viewBox="0 0 1155 283">
  <g id="logo-opentitan" fill="#000" fill-rule="evenodd" stroke="none" stroke-width="1">
    <path id="figure" d="M230.3 155.9h-24.8v-7h-24.8c-2 0-3.5 1.5-3.5 3.5v31.8h-32c-1.9 0-3.5 1.6-3.5 3.6v24.8h7.1v24.8c0 2 1.6 3.5 3.6 3.5h21.2c2 0 3.6-1.5 3.6-3.5v-24.8h28.3v-28.4h24.8c2 0 3.6-1.5 3.6-3.5v-21.3c0-2-1.6-3.5-3.6-3.5zM124 184.2H92.1v-31.8c0-2-1.6-3.6-3.5-3.6H63.8v7.1H39c-2 0-3.6 1.6-3.6 3.5v21.3c0 2 1.6 3.5 3.6 3.5h24.8v28.4H92v24.8c0 2 1.6 3.5 3.6 3.5h21.2c2 0 3.6-1.5 3.6-3.5v-24.8h7v-24.8c0-2-1.5-3.6-3.5-3.6zm-85-56.6h24.8v7h24.8c2 0 3.5-1.5 3.5-3.5V99.2h32c1.9 0 3.5-1.6 3.5-3.5V70.9h-7.1V46c0-2-1.6-3.6-3.6-3.6H95.7c-2 0-3.6 1.6-3.6 3.6v24.8H63.8v28.3H39c-2 0-3.6 1.6-3.6 3.5V124c0 2 1.6 3.6 3.6 3.6zm106.3-28.4h31.9v31.9c0 2 1.6 3.5 3.5 3.5h24.8v-7h24.8c2 0 3.6-1.6 3.6-3.6v-21.3c0-2-1.6-3.5-3.6-3.5h-24.8V70.9h-28.3V46c0-2-1.6-3.6-3.6-3.6h-21.2c-2 0-3.6 1.6-3.6 3.6v24.8h-7v24.8c0 2 1.5 3.5 3.5 3.5zm-39 70.9H163v-56.7h-56.7V170z"/>
    <path id="word" d="M968.2 102.7v3.3c-6.6-6-15.4-9.4-26.4-9.4-20.5 0-38 15.2-41 38h24.5c1.4 0 2.8-.8 3.3-2.2 3-7.8 10-12.7 18.8-12.7 11 0 20.8 9 20.8 22 0 13.2-9.8 22-20.8 22-8.8 0-15.8-4.8-18.8-12.7a3.6 3.6 0 00-3.4-2.2h-24.4a41.6 41.6 0 0067.4 28.6v3.3c0 2 1.6 3.5 3.6 3.5h20c2 0 3.5-1.6 3.5-3.5v-78c0-2-1.5-3.5-3.5-3.5h-20c-2 0-3.6 1.6-3.6 3.5zm-524-4a40.6 40.6 0 00-33.1 15.4v-9.9c0-2-1.6-3.5-3.6-3.5h-5.8c-2 0-3.5 1.6-3.5 3.5v30.4h11c1.6 0 3-1 3.4-2.5a31.2 31.2 0 0160.8 10.4c0 19.9-13.9 32.4-31.2 32.4a31.2 31.2 0 01-30-23.4 3.6 3.6 0 00-3.4-2.7h-10.6v60.7c0 2 1.6 3.5 3.5 3.5h5.8c2 0 3.6-1.6 3.6-3.5V171a40.6 40.6 0 0033.2 15.4 42 42 0 0041.6-43.9 42 42 0 00-41.6-43.8zm658 33.3v48.7c0 2-1.6 3.5-3.5 3.5h-19.9c-2 0-3.5-1.6-3.5-3.5v-42.9c0-10-6-16.8-14.6-16.8-10.7 0-17.6 7.3-17.6 23.7v36c0 2-1.6 3.5-3.6 3.5h-20c-2 0-3.5-1.6-3.5-3.5v-78c0-2 1.6-3.5 3.5-3.5h20c2 0 3.6 1.6 3.6 3.5v4.6a35 35 0 0126-10.7c19.9 0 33.1 14 33.1 35.4zm-207.8 45.7c.5 1.6-.2 3.4-1.8 4.1-5.8 3-12.2 5-20.5 5-21.2 0-34-11.6-34-34v-32.1h-11.8c-2 0-3.5-1.6-3.5-3.6v-14.4c0-2 1.6-3.5 3.5-3.5h11.9V77.6c0-2 1.6-3.5 3.5-3.5h20c2 0 3.6 1.6 3.6 3.5v21.6h21.5c2 0 3.6 1.6 3.6 3.5v14.4c0 2-1.6 3.6-3.6 3.6h-21.5v29.5c0 8.8 4.2 12.3 11.3 12.3 2.7 0 6-.6 9-1.7 1.8-.8 4 .3 4.6 2.3l4.2 14.6zm-112.2 3v-78c0-2 1.5-3.5 3.5-3.5h20c2 0 3.6 1.6 3.6 3.5v78c0 2-1.6 3.5-3.6 3.5h-20c-2 0-3.5-1.6-3.5-3.5zM811.5 74c0 8.6-6.6 15-15.8 15-9.1 0-15.6-6.4-15.6-15 0-8.3 6.5-15.4 15.6-15.4 9.2 0 15.8 7.1 15.8 15.4zm-42.8 103.6c.4 1.6-.3 3.4-1.9 4.1-5.8 3-12.1 5-20.5 5-21.2 0-34-11.6-34-34v-32.1h-11.8c-2 0-3.5-1.6-3.5-3.6v-14.4c0-2 1.6-3.5 3.5-3.5h11.9V77.6c0-2 1.6-3.5 3.5-3.5h20c2 0 3.6 1.6 3.6 3.5v21.6H761c2 0 3.6 1.6 3.6 3.5v14.4c0 2-1.6 3.6-3.6 3.6h-21.5v29.5c0 8.8 4.2 12.3 11.3 12.3 2.7 0 6-.6 9-1.7 1.8-.8 4 .3 4.6 2.3l4.3 14.6zm-86-43.5v46.5c0 2-1.5 3.5-3.5 3.5h-5.8c-2 0-3.5-1.6-3.5-3.5v-44c0-15.7-9.3-26.2-23.2-26.2-17.5 0-29 11.9-29 33.6v36.6c0 2-1.6 3.5-3.5 3.5h-5.8c-2 0-3.5-1.6-3.5-3.5v-76.5c0-2 1.5-3.5 3.5-3.5h5.8c2 0 3.5 1.6 3.5 3.5v10.4a35.9 35.9 0 0131.5-16c20.2 0 33.6 14.5 33.6 35.6zm-168.2 1.2h58.1c-2.3-16.4-14-25.4-28-25.4a30 30 0 00-30 25.4zm71.2 9.7H514c1.2 18.8 15.4 30 29.8 30 11.1 0 21.2-4 27.3-15.5a3.6 3.6 0 014-1.8l4.6 1c2.2.6 3.4 3 2.4 5a40 40 0 01-38.3 22.6 42.2 42.2 0 01-42.3-43.7c0-26.8 20.1-44 43.2-44 22.5 0 40.1 16.7 41 41.6v4.8zm-219.2-2.7a31.2 31.2 0 00-31.5-32.2c-17.3 0-31.9 13-31.9 32.2a31.5 31.5 0 0031.9 32.5 31.4 31.4 0 0031.5-32.5zm12.7 0a43.1 43.1 0 01-44.2 43.8 43 43 0 01-44.4-43.8A42.8 42.8 0 01335 98.8c24.5 0 44.2 18 44.2 43.6z"/>
  </g>
</svg>
