<?xml version="1.0" encoding="UTF-8" standalone="no"?>
<svg
   xmlns:dc="http://purl.org/dc/elements/1.1/"
   xmlns:cc="http://creativecommons.org/ns#"
   xmlns:rdf="http://www.w3.org/1999/02/22-rdf-syntax-ns#"
   xmlns:svg="http://www.w3.org/2000/svg"
   xmlns="http://www.w3.org/2000/svg"
   id="svg1103"
   version="1.1"
   viewBox="0 0 73.069839 59.551506"
   height="59.551506mm"
   width="73.069839mm">
  <defs
     id="defs1097" />
  <metadata
     id="metadata1100">
    <rdf:RDF>
      <cc:Work
         rdf:about="">
        <dc:format>image/svg+xml</dc:format>
        <dc:type
           rdf:resource="http://purl.org/dc/dcmitype/StillImage" />
        <dc:title></dc:title>
      </cc:Work>
    </rdf:RDF>
  </metadata>
  <g
     transform="translate(-45.107939,-150.80758)"
     id="layer1">
    <g
       transform="matrix(0.35277777,0,0,-0.35277777,95.013486,171.92149)"
       id="g20">
      <path
         id="path22"
         style="fill:#e0264a;fill-opacity:1;fill-rule:nonzero;stroke:none"
         d="m 0,0 -28.58,-28.58 c 2.145,-3.023 1.768,-7.319 -1.147,-9.885 -2.848,-2.506 -7.311,-2.407 -10.049,0.219 -3.003,2.88 -3.04,7.694 -0.112,10.622 2.591,2.592 6.658,2.852 9.556,0.796 L -0.659,2.845 c -4.484,16.512 -19.572,28.659 -37.504,28.659 -19.653,0 -35.89,-14.589 -38.494,-33.526 l 8.786,8.786 c 0.619,0.619 1.457,0.966 2.332,0.966 h 10.26 c 0.595,3.503 3.655,6.194 7.32,6.194 v 0 c 2.938,0 5.706,-1.675 6.818,-4.395 2.179,-5.326 -1.748,-10.471 -6.818,-10.471 v 0 c -3.665,0 -6.725,2.692 -7.32,6.194 h -9.725 c -0.56,0 -1.097,-0.222 -1.493,-0.618 L -76.994,-5.862 c -0.019,-0.499 -0.038,-0.998 -0.038,-1.502 0,-5.953 1.344,-11.592 3.736,-16.636 l 7.876,7.876 c -2.056,2.898 -1.796,6.964 0.796,9.556 v 0 c 2.891,2.891 7.621,2.891 10.512,0 2.891,-2.89 2.891,-7.621 0,-10.511 v -10e-4 c -2.592,-2.591 -6.658,-2.852 -9.556,-0.796 l -8.432,-8.432 c 2.408,-4.304 5.618,-8.093 9.416,-11.189 l 33.468,33.468 c 0.374,0.373 0.584,0.88 0.584,1.408 v 13.034 c -3.662,0.622 -6.437,3.937 -6.178,7.822 0.251,3.756 3.427,6.814 7.189,6.927 4.191,0.127 7.66,-3.265 7.66,-7.429 0,-3.665 -2.691,-6.725 -6.194,-7.32 V -3.069 c 0,-0.898 -0.357,-1.76 -0.992,-2.395 l -33.55,-33.549 c 6.357,-4.538 14.128,-7.219 22.534,-7.219 21.467,0 38.869,17.402 38.869,38.868 C 0.706,-4.845 0.458,-2.385 0,0" />
    </g>
    <g
       transform="matrix(0.35277777,0,0,-0.35277777,57.382896,189.39038)"
       id="g24">
      <path
         id="path26"
         style="fill:#4f4c4d;fill-opacity:1;fill-rule:nonzero;stroke:none"
         d="m 0,0 c 0.282,-0.482 -0.281,-27.472 -0.483,-30.569 0,0 -5.43,-0.04 -5.752,0.161 -0.321,0.241 -0.321,29.725 0.282,30.247 C -5.39,0.362 -0.12,0.282 0,0" />
    </g>
    <g
       transform="matrix(0.35277777,0,0,-0.35277777,68.180081,192.90919)"
       id="g28">
      <path
         id="path30"
         style="fill:#4f4c4d;fill-opacity:1;fill-rule:nonzero;stroke:none"
         d="m 0,0 c 0.483,0 3.379,-13.234 3.379,-13.234 1.006,3.138 3.097,7.924 3.539,9.453 -0.2,0.683 -0.924,2.615 -0.924,3.056 0.402,0.402 5.068,0.886 5.551,0.604 0.402,-0.242 3.499,-12.389 3.7,-13.032 0.241,0.643 3.861,13.192 4.062,13.233 0.242,0.04 5.873,-1.167 5.833,-1.408 -0.563,-2.534 -6.355,-19.026 -6.556,-19.227 -0.523,-0.442 -6.316,0.081 -6.356,0.201 -0.04,0.041 -1.447,4.224 -2.735,9.413 -1.73,-5.069 -3.62,-9.493 -3.7,-9.614 -0.524,-0.442 -6.315,0.081 -6.356,0.162 -0.04,0.08 -5.309,17.979 -5.269,19.227 C -5.832,-0.885 -0.522,0 0,0" />
    </g>
    <g
       transform="matrix(0.35277777,0,0,-0.35277777,81.701981,194.8107)"
       id="g32">
      <path
         id="path34"
         style="fill:#4f4c4d;fill-opacity:1;fill-rule:nonzero;stroke:none"
         d="m 0,0 c 2.615,0 4.425,1.046 4.425,3.459 0,2.252 -1.167,3.701 -4.666,3.701 -0.764,0 -1.851,-0.041 -2.655,-0.122 0.04,-1.085 0,-5.51 0,-6.918 C -2.132,0.04 -0.925,0 0,0 m -10.378,-15.003 c -0.201,1.89 -0.039,25.179 0.322,27.954 2.052,0.242 6.396,0.443 9.534,0.443 7.722,0 12.147,-3.056 12.147,-9.774 0,-4.183 -1.971,-6.637 -5.108,-7.924 3.057,-3.701 6.194,-8.608 6.073,-8.769 -0.442,-0.603 -5.068,-2.533 -6.274,-2.494 -0.121,0 -3.621,5.672 -6.959,10.057 -0.161,-0.041 -0.362,-0.041 -0.523,-0.041 -0.684,0 -1.649,0.041 -2.132,0.08 -0.04,-2.776 -0.04,-8.245 -0.201,-9.412 -0.402,-0.16 -6.838,-0.362 -6.879,-0.12" />
    </g>
    <g
       transform="matrix(0.35277777,0,0,-0.35277777,89.95945,190.18476)"
       id="g36">
      <path
         id="path38"
         style="fill:#4f4c4d;fill-opacity:1;fill-rule:nonzero;stroke:none"
         d="m 0,0 c 0.281,-1.69 0.242,-25.421 -0.04,-27.996 -0.241,-0.723 -7.119,-0.442 -7.16,-0.16 -0.161,2.855 -0.281,24.214 0.041,28.075 C -5.872,0.402 -0.241,0.24 0,0" />
    </g>
    <g
       transform="matrix(0.35277777,0,0,-0.35277777,91.377722,199.12433)"
       id="g40">
      <path
         id="path42"
         style="fill:#4f4c4d;fill-opacity:1;fill-rule:nonzero;stroke:none"
         d="M 0,0 C -0.161,0.805 1.81,5.953 2.253,5.752 3.178,5.188 6.195,3.016 9.614,3.016 c 2.373,0 3.901,0.725 3.901,2.454 0,1.286 -0.965,2.253 -5.108,3.097 -5.269,1.086 -8.206,3.539 -8.206,8.809 0,4.586 3.741,8.568 10.539,8.568 4.264,0 7.844,-1.127 9.412,-2.373 0.524,-0.402 -1.89,-5.632 -2.292,-5.592 -0.604,0.281 -3.54,1.77 -6.959,1.77 -2.413,0 -3.54,-0.965 -3.54,-2.293 0,-1.246 0.684,-1.89 4.586,-2.776 5.188,-1.205 9.211,-3.297 9.211,-8.808 0,-4.264 -3.419,-8.728 -11.263,-8.728 C 5.39,-2.856 1.448,-1.087 0,0" />
    </g>
    <g
       transform="matrix(0.35277777,0,0,-0.35277777,104.75795,197.9609)"
       id="g44">
      <path
         id="path46"
         style="fill:#4f4c4d;fill-opacity:1;fill-rule:nonzero;stroke:none"
         d="M 0,0 C 3.258,0 5.471,1.729 6.355,2.373 7.281,1.729 9.051,-1.528 9.694,-2.896 7.965,-4.866 3.902,-6.798 -0.724,-6.798 c -9.412,0 -13.797,6.717 -13.797,15.124 0,8.085 5.712,14.32 14.843,14.32 4.626,0 7.964,-1.448 9.211,-2.655 0,-0.805 -1.689,-5.149 -2.695,-5.994 -1.448,0.845 -3.901,1.932 -6.436,1.932 -4.143,0 -7.36,-3.299 -7.36,-7.885 C -6.958,2.292 -3.419,0 0,0" />
    </g>
    <g
       transform="matrix(0.35277777,0,0,-0.35277777,63.480306,195.74951)"
       id="g48">
      <path
         id="path50"
         style="fill:#4f4c4d;fill-opacity:1;fill-rule:nonzero;stroke:none"
         d="m 0,0 c 0.505,-0.768 0.803,-1.683 0.803,-2.671 0,-2.692 -2.183,-4.875 -4.875,-4.875 -2.692,0 -4.875,2.183 -4.875,4.875 0,2.692 2.183,4.875 4.875,4.875 0.86,0 1.656,-0.242 2.357,-0.633 L 2.38,5.666 c -1.765,1.371 -4.028,2.103 -6.512,2.103 -6.275,0 -10.137,-4.947 -10.137,-9.976 0,-6.555 4.506,-10.498 10.217,-10.498 6.436,0.122 10.177,4.787 10.177,9.976 0,2.753 -0.791,5.02 -2.114,6.74 z" />
    </g>
  </g>
</svg>
