<svg xmlns="http://www.w3.org/2000/svg" width="152.11" height="142.239" viewBox="0 0 152.11 142.239"><g fill="#FFF"><path d="M126.997 88.052c.896 2.249 1.561 3.933 2.237 5.613.637 1.585 1.285 3.167 2.244 5.527l20.632-35.876c-13.565-4.667-26.707-8.755-40.868-12.883 1.567 3.48 2.691 5.877 3.731 8.31 1.485 3.474 1.4 3.69-1.785 5.437-1.168.641-2.4 1.167-3.547 1.841-14.8 8.698-26.967 19.968-34.829 35.496-3.868 7.639-6.25 15.762-8.16 24.049-1.255 5.441-2.708 10.868-2.379 16.672h27.021c2.471-24.009 12.733-42.875 35.703-54.186zm-101.054.268c4.938 1.982 8.695 5.028 12.284 8.15 3.742 3.255 7.462 6.682 10.47 10.59 2.837 3.686 4.736 8.095 7.387 12.787 2.894-11.614 7.114-22.021 13.108-31.607-9.286-10.903-19.742-19.726-33.218-25.313l5.146-13.82L0 62.394l20.689 38.586 5.254-12.66zm64.096-55.818c2.593 0 4.555.012 6.516-.004 1.875-.015 3.749-.059 6.759-.11C93.601 21.339 85.888 10.223 76.493 0L49.674 32.203l13.619.747c0 2.327.032 4.112-.006 5.895-.144 6.822-.134 13.653-.536 20.46-.234 3.97.584 7.007 3.989 9.475 2.248 1.629 3.884 4.087 5.86 6.11 1.221 1.25 2.564 2.381 3.488 3.231 4.393-3.988 8.232-7.633 12.264-11.051 1.461-1.239 1.919-2.567 1.887-4.323a1375.86 1375.86 0 0 1-.194-15.474c-.031-4.772-.006-9.545-.006-14.771z"/><path d="M126.997 88.052c-22.97 11.311-33.232 30.177-35.703 54.186H64.273c-.329-5.804 1.125-11.231 2.379-16.672 1.911-8.286 4.292-16.409 8.16-24.049 7.862-15.528 20.029-26.798 34.829-35.496 1.147-.674 2.379-1.201 3.547-1.841 3.185-1.747 3.27-1.963 1.785-5.437-1.04-2.433-2.164-4.83-3.731-8.31 14.161 4.128 27.303 8.216 40.868 12.883l-20.632 35.876c-.959-2.36-1.607-3.942-2.244-5.527-.676-1.68-1.342-3.364-2.237-5.613zm-101.054.268l-5.254 12.66L0 62.394l41.121-13.287-5.146 13.82c13.475 5.587 23.932 14.41 33.218 25.314-5.994 9.586-10.214 19.993-13.108 31.607-2.651-4.692-4.549-9.101-7.387-12.787-3.008-3.908-6.728-7.335-10.47-10.59-3.59-3.124-7.348-6.17-12.285-8.151zm64.096-55.818c0 5.226-.025 9.999.007 14.773.034 5.158.102 10.316.194 15.474.031 1.756-.426 3.084-1.887 4.323-4.032 3.418-7.871 7.063-12.264 11.051-.924-.849-2.267-1.981-3.488-3.231-1.975-2.023-3.612-4.481-5.86-6.11-3.406-2.468-4.224-5.505-3.989-9.475.401-6.807.392-13.639.536-20.46.038-1.783.006-3.568.006-5.895l-13.619-.747C58.702 21.363 67.362 10.964 76.493 0c9.395 10.223 17.108 21.339 26.821 32.389-3.01.05-4.884.095-6.759.11-1.961.015-3.923.003-6.516.003z"/></g></svg>